<?xml version="1.0" encoding="UTF-8" standalone="no"?>
<svg
   xmlns:dc="http://purl.org/dc/elements/1.1/"
   xmlns:cc="http://creativecommons.org/ns#"
   xmlns:rdf="http://www.w3.org/1999/02/22-rdf-syntax-ns#"
   xmlns:svg="http://www.w3.org/2000/svg"
   xmlns="http://www.w3.org/2000/svg"
   xmlns:sodipodi="http://sodipodi.sourceforge.net/DTD/sodipodi-0.dtd"
   xmlns:inkscape="http://www.inkscape.org/namespaces/inkscape"
   viewBox="0 0 50 50"
   width="50px"
   height="50px"
   version="1.1"
   id="svg5"
   sodipodi:docname="icons8-restart.svg"
   inkscape:version="1.0.2 (e86c870879, 2021-01-15)">
  <metadata
     id="metadata11">
    <rdf:RDF>
      <cc:Work
         rdf:about="">
        <dc:format>image/svg+xml</dc:format>
        <dc:type
           rdf:resource="http://purl.org/dc/dcmitype/StillImage" />
      </cc:Work>
    </rdf:RDF>
  </metadata>
  <defs
     id="defs9" />
  <sodipodi:namedview
     pagecolor="#ffffff"
     bordercolor="#666666"
     borderopacity="1"
     objecttolerance="10"
     gridtolerance="10"
     guidetolerance="10"
     inkscape:pageopacity="0"
     inkscape:pageshadow="2"
     inkscape:window-width="1920"
     inkscape:window-height="991"
     id="namedview7"
     showgrid="false"
     inkscape:zoom="16.4"
     inkscape:cx="25"
     inkscape:cy="25"
     inkscape:window-x="-9"
     inkscape:window-y="-9"
     inkscape:window-maximized="1"
     inkscape:current-layer="surface219348831"
     inkscape:document-rotation="0" />
  <g
     id="surface219348831">
    <path
       style="fill:#b8ddde;fill-opacity:1;fill-rule:nonzero;stroke:none"
       d="m 25,2 c 0.359375,-0.00391 0.695312,0.183594 0.878906,0.496094 0.179688,0.3125 0.179688,0.695312 0,1.007812 C 25.695312,3.816406 25.359375,4.003906 25,4 13.390625,4 4,13.390625 4,25 4,36.609375 13.390625,46 25,46 36.609375,46 46,36.609375 46,25 46,18.308594 42.871094,12.363281 38,8.519531 V 15 c 0.0039,0.359375 -0.183594,0.695312 -0.496094,0.878906 -0.3125,0.179688 -0.695312,0.179688 -1.007812,0 C 36.183594,15.695312 35.996094,15.359375 36,15 V 5 h 10 c 0.359375,-0.00391 0.695312,0.183594 0.878906,0.496094 0.179688,0.3125 0.179688,0.695312 0,1.007812 C 46.695312,6.816406 46.359375,7.003906 46,7 H 39.300781 C 44.597656,11.214844 48,17.710938 48,25 48,37.691406 37.691406,48 25,48 12.308594,48 2,37.691406 2,25 2,12.308594 12.308594,2 25,2 Z m 0,0"
       id="path2" />
  </g>
</svg>
